inDegrees=no
num_controls=7
num_derivatives=13
num_iterations=161
num_multipliers=7
num_parameters=0
num_slacks=7
num_states=26
objective=6.008425
objective_accelerations=1.014633
objective_balance=0.077122
objective_effort=0.674819
objective_height=4.161509
objective_ligament=0.080343
solver_duration=1664.096083
status=Solve_Succeeded
success=true
DataType=double
version=3
OpenSimVersion=4.4-2022-07-23-0e9fedc
endheader
time	/jointset/ground_pelvis/pelvis_tilt/value	/jointset/ground_pelvis/pelvis_tx/value	/jointset/ground_pelvis/pelvis_ty/value	/jointset/hip_l/hip_flexion_l/value	/jointset/hip_l/hip_adduction_l/value	/jointset/hip_l/hip_rotation_l/value	/jointset/back/lumbar_extension/value	/jointset/patellofemoral_l/patellar_flexion_l/value	/jointset/knee_l/knee_flexion_l/value	/jointset/knee_l/knee_adduction_l/value	/jointset/knee_l/knee_rotation_l/value	/jointset/ankle_l/ankle_angle_l/value	/jointset/subtalar_l/subtalar_angle_l/value	/jointset/ground_pelvis/pelvis_tilt/speed	/jointset/ground_pelvis/pelvis_tx/speed	/jointset/ground_pelvis/pelvis_ty/speed	/jointset/hip_l/hip_flexion_l/speed	/jointset/hip_l/hip_adduction_l/speed	/jointset/hip_l/hip_rotation_l/speed	/jointset/back/lumbar_extension/speed	/jointset/patellofemoral_l/patellar_flexion_l/speed	/jointset/knee_l/knee_flexion_l/speed	/jointset/knee_l/knee_adduction_l/speed	/jointset/knee_l/knee_rotation_l/speed	/jointset/ankle_l/ankle_angle_l/speed	/jointset/subtalar_l/subtalar_angle_l/speed	/forceset/tau_hip_flexion_l	/forceset/tau_hip_adduction_l	/forceset/tau_hip_rotation_l	/forceset/tau_knee_flexion_l	/forceset/tau_ankle_angle_l	/forceset/tau_subtalar_angle_l	/forceset/tau_lumbar_extension	lambda_cid13_p0	lambda_cid13_p1	lambda_cid13_p2	lambda_cid13_p3	lambda_cid13_p4	lambda_cid13_p5	lambda_cid14_p0	/jointset/ground_pelvis/pelvis_tilt/accel	/jointset/ground_pelvis/pelvis_tx/accel	/jointset/ground_pelvis/pelvis_ty/accel	/jointset/hip_l/hip_flexion_l/accel	/jointset/hip_l/hip_adduction_l/accel	/jointset/hip_l/hip_rotation_l/accel	/jointset/back/lumbar_extension/accel	/jointset/patellofemoral_l/patellar_flexion_l/accel	/jointset/knee_l/knee_flexion_l/accel	/jointset/knee_l/knee_adduction_l/accel	/jointset/knee_l/knee_rotation_l/accel	/jointset/ankle_l/ankle_angle_l/accel	/jointset/subtalar_l/subtalar_angle_l/accel	gamma_cid13_p0	gamma_cid13_p1	gamma_cid13_p2	gamma_cid13_p3	gamma_cid13_p4	gamma_cid13_p5	gamma_cid14_p0
1.5	-0.06843677216150658	-0.05123576897023203	0.748920104289725	1.100961041870191	-0.3094056530346338	-0.07522936295527277	-0.8437079083854874	1.179931707982731	1.179931707982321	0.02177223606825606	-0.1745319119933871	0.2402904210345119	0.07470718652989346	0.4254434900271463	0.2269385074079192	0.8902280191640787	-3.09335688875752	0.04262082565538342	-0.6491362754332461	0.7885496980449844	-3.026867677476671	-3.026867677477039	-0.4752424207668309	-5.203842859749585e-05	-0.5490141413103364	-0.1781103956064654	-0.2687564147541601	0.01275335822943129	-0.01753299612992202	-0.2892239483310982	0.08491489384582264	0.04974722859835057	0.3322488896555763	-12.63263169191391	-18.07778173182717	0.9251025593204617	-20.66650405597205	-658.6195444954669	-70.3486196227478	-1.301811026980608	1.144219596142193	1.334279975762052	-1.03897775997943	-1.475976436020922	0.3665049439135733	-0.74989364815723	2.880256223563822	-1.912090048718952	-1.912090048718968	-0.2270690620541452	0.0901524674524288	-1.701512863898532	-0.1312006059143597	6.01120666011284e-07	3.880544099840825e-06	-1.423812029177307e-06	4.627644531566418e-07	7.104291840085847e-07	3.39268926796207e-07	7.206362145133681e-07
1.51	-0.06412589641836809	-0.04889981180039744	0.7577683524079386	1.069956365359288	-0.3089633516099949	-0.08175963511482566	-0.835679664300832	1.149570831471234	1.149570831471317	0.0170063314169741	-0.1745323765833861	0.234716196966412	0.07291721184250902	0.4366049030383774	0.2402323382043145	0.8792051431815026	-3.107203703327691	0.04583924816608406	-0.6569033573455398	0.8170252605328239	-3.044902054992589	-3.044902054992664	-0.4779292329144789	-3.93271256416599e-05	-0.5656580820791224	-0.1797995693571959	-0.2585593625997978	0.01298524070200861	-0.01686305877267521	-0.2812176481657632	0.08457100097750953	0.04967309673408927	0.3219206743923454	-12.14957790910388	-18.31352255854	1.172123828651227	-20.4919195480775	-648.6672674281141	-70.20476724644222	-1.920831931974941	1.083148668304585	1.323937465414614	-1.166250650368895	-1.282762605148589	0.2993351174061971	-0.7870893962587777	2.820127508398556	-1.688431033596299	-1.688431033552437	-0.2873336765106242	-0.04320524489532719	-1.619731293841705	-0.1755334414743089	6.489753912701288e-07	4.164814667518026e-06	-1.528982426605017e-06	4.579272826598942e-07	7.730490699170461e-07	5.145563327731491e-07	7.562026797652485e-07
1.52	-0.05970719724217427	-0.04643151575583145	0.7664999101397321	1.038824474975162	-0.3084889011176947	-0.08836697288020075	-0.8273688803418968	1.119041747298464	1.119041747299042	0.01221398936712423	-0.1745327212021806	0.2289807541685298	0.07111279388125301	0.4470081766372339	0.2534062823542011	0.8668899418800443	-3.118799663403201	0.04905063918709606	-0.664549396597563	0.845057672900839	-3.060509209731233	-3.060509209731017	-0.4805299004777417	-2.804408718120367e-05	-0.5812578872668314	-0.1809990503808002	-0.2483623104454313	0.01321712317459827	-0.01619312141546308	-0.2732113480004292	0.08422710810919887	0.04959896486984594	0.3115924591291172	-11.66218449126995	-18.56462746830826	1.438276412340864	-20.40320571334243	-638.6731834843998	-70.15961052781422	-2.6518595355461	0.9925917136672825	1.310302646460301	-1.29744282375587	-1.025805537088887	0.3650986459760553	-0.7256851161028256	2.791626199599018	-1.426645493264304	-1.426645493264377	-0.2098401451770461	0.08986681455376927	-1.492685747683129	-0.03326206048889858	6.965063367568149e-07	4.517657379281896e-06	-1.585521772936936e-06	4.632624320087353e-07	8.407965318422812e-07	7.193453425195983e-07	7.945243195247065e-07
1.53	-0.05518827696721634	-0.04383222063085256	0.7751020268427288	1.00758772339971	-0.3079822478098789	-0.0950502818179865	-0.8187804763022168	1.088368655787676	1.088368655787773	0.007396071820267355	-0.1745327890604023	0.2230946021990583	0.06929900671434121	0.4566347037969395	0.2664168014175887	0.8533298065166693	-3.128153727688364	0.05230755627931397	-0.6720475318810002	0.8725148581258604	-3.073688972173621	-3.073688972173637	-0.4830416121230296	8.476740547075731e-05	-0.5957858958083317	-0.1816389587957826	-0.2379109991204874	0.01317955865286099	-0.015544042676796	-0.2657459018938925	0.08403979472693794	0.04922994763161241	0.3009933336698181	-11.17121131614621	-18.67437810326951	1.666001555468478	-20.12187937271958	-629.0066712803842	-69.94021465889881	-3.491599261528185	0.9265629053850623	1.291132962301651	-1.415647087499361	-0.8306057224485974	0.3098764107619209	-0.7512574176766965	2.706523147565499	-1.200795152999253	-1.200795153034033	-0.2691537145790698	-0.01773176779370896	-1.404613280765576	-0.06208167191643209	7.436932662355822e-07	4.943357994137852e-06	-1.590390627479575e-06	4.794056711935141e-07	9.139920432853384e-07	9.554798062711482e-07	8.35773332198466e-07
1.54	-0.05057731548300497	-0.04110387903003489	0.7835624725531174	0.9762693514117677	-0.3074422476971553	-0.101806448045237	-0.8099207487175643	1.057576335945804	1.057576335945426	0.002553573748877665	-0.1745296728211965	0.2170688191694974	0.06748227517529702	0.465416418487144	0.2792155775219581	0.8385557433584646	-3.135123745902276	0.05572000016820367	-0.6791208544929372	0.8993223818953465	-3.084354875946936	-3.084354875947184	-0.4854460053832871	0.0006087755215379612	-0.6091840992851159	-0.1815879248073044	-0.2274596877955247	0.01314199413117779	-0.01489496393808451	-0.2582804557873499	0.08385248134468887	0.04886093039345177	0.290394208210527	-10.67167257687336	-18.80140410565284	1.914501007454347	-19.93587191137984	-619.2420018277113	-69.82259599777225	-4.438314349831748	0.8236292197671082	1.267954054656669	-1.54022838272186	-0.5489963228389911	0.3962040053104622	-0.6407225818027609	2.661693908492008	-0.9238737594495621	-0.9238737594495886	-0.1883764681709621	0.1721061392368513	-1.266724734739904	0.104926420203253	7.801675574309895e-07	5.368091874949514e-06	-1.548013564741749e-06	5.02681283993181e-07	9.818046729087737e-07	1.198800915969037e-06	8.705062414390566e-07
1.55	-0.04588267512832794	-0.03824873234612005	0.791869288468489	0.9448930009211982	-0.3068674651633918	-0.108631871585862	-0.8007966002027174	1.026689934948973	1.026689934948685	-0.002312241293970897	-0.1745197846804547	0.2109147707344577	0.06566936919115195	0.473367605304047	0.2917640440261766	0.8226183287348947	-3.139734840188495	0.05925997319105673	-0.6858892652043606	0.9253708200789048	-3.092482678630309	-3.092482678630331	-0.4877061286071566	0.001435179473576026	-0.6214262029259325	-0.1808806751081853	-0.2170546914960138	0.01280206275434728	-0.01430064341695632	-0.2512495242738396	0.08359574432875926	0.04823760014397477	0.2798093047483455	-10.25039831349087	-18.79775651087379	2.134717426470434	-19.53276460474944	-610.0130046942004	-69.54884070779605	-5.490990134719528	0.7593036938525496	1.24094599731245	-1.648649120628872	-0.3553845589570505	0.336038853882233	-0.6827733338649868	2.55594362402587	-0.6910193756411682	-0.6910193756073392	-0.2421964036938203	0.04763320296157242	-1.172757654346229	0.06971414266369498	8.042990262564394e-07	5.791711910014491e-06	-1.451200988615563e-06	5.34174631610001e-07	1.043415286522645e-06	1.450402291648575e-06	8.977314662892572e-07
1.56	-0.04111283484923808	-0.03526957038736126	0.8000111000139341	0.9134828957722823	-0.3062566539187759	-0.1155225538372009	-0.7914160623358871	0.9957354987547281	0.9957354987545466	-0.007200130799896508	-0.1744996873641936	0.2046443403678931	0.06386675368357764	0.4804564033689609	0.3040186324907502	0.805554869373176	-3.141874677572462	0.06292574233827175	-0.6921725966378983	0.950600252291981	-3.097961915428084	-3.097961915427881	-0.4898608979989746	0.002650610616585578	-0.6324604855904964	-0.1795298294931671	-0.206649695196486	0.01246213137756846	-0.01370632289574105	-0.2442185927603213	0.08333900731284183	0.04761426989456591	0.2692244012861688	-9.81753215114678	-18.81282890927211	2.376983074320815	-19.22976734614427	-600.6451487191403	-69.37840375142336	-6.644347978212664	0.6511514693693354	1.209178446727733	-1.765437330351627	-0.05474494238834655	0.42136323018282	-0.5437067262257353	2.497892714395629	-0.3941605823301451	-0.3941605823301306	-0.1673057017606622	0.2499115774309887	-1.025160539489325	0.2336456033829822	8.156454437313672e-07	6.072555614522346e-06	-1.389045180690743e-06	5.512772451923806e-07	1.089162211523123e-06	1.646756814886476e-06	9.114165188160173e-07
